<?xml version="1.0" encoding="UTF-8"?>
<svg version="1.1" xmlns="http://www.w3.org/2000/svg" width="512" height="512">
<path d="M0 0 C7.47609217 6.15233217 10.66350971 14.1215428 14 23 C14.47695313 24.17304687 14.95390625 25.34609375 15.4453125 26.5546875 C18.52159612 34.44755233 19.75143617 41.55759318 20 50 C20.83772949 49.92386475 21.67545898 49.84772949 22.53857422 49.76928711 C34.67508429 49.1711689 44.76317346 52.60964779 56.125 56.5625 C57.94981876 57.17981364 59.77533893 57.79505786 61.6015625 58.40820312 C65.24042072 59.63255595 68.87236041 60.87504048 72.50097656 62.12939453 C76.26352104 63.42328025 80.03966205 64.65674441 83.83496094 65.85107422 C84.7836203 66.15367661 85.73227966 66.45627899 86.70968628 66.76805115 C88.50913993 67.33992639 90.31199067 67.90126615 92.11868286 68.44984436 C98.6809613 70.55371444 102.98874556 72.91052276 106.85668945 78.85205078 C108.19978672 82.55008541 108.34169371 85.43670747 108.29296875 89.3671875 C108.28872391 90.04677521 108.28447906 90.72636292 108.28010559 91.42654419 C108.26344266 93.57644924 108.22581716 95.72538299 108.1875 97.875 C108.172437 99.3411322 108.15875143 100.80727924 108.14648438 102.2734375 C108.1135808 105.84926875 108.06188663 109.42453941 108 113 C108.54414551 112.78794922 109.08829102 112.57589844 109.64892578 112.35742188 C112.13706641 111.39454373 114.63084824 110.44719253 117.125 109.5 C117.9809375 109.16613281 118.836875 108.83226563 119.71875 108.48828125 C128.13142623 105.31734944 128.13142623 105.31734944 133 106 C135.4375 108.1875 135.4375 108.1875 137 111 C136.9322184 113.84682699 136.55958866 115.31706941 134.75390625 117.52075195 C132.61231586 119.32697358 130.63453428 120.09402903 128 121.04296875 C127.030625 121.39423828 126.06125 121.74550781 125.0625 122.10742188 C124.051875 122.46384766 123.04125 122.82027344 122 123.1875 C120.989375 123.55552734 119.97875 123.92355469 118.9375 124.30273438 C111.41117811 127 111.41117811 127 108 127 C108.04640625 127.71285156 108.0928125 128.42570313 108.140625 129.16015625 C108.39063827 135.79443691 108.03293575 139.65908509 104 145 C98.60004727 150.00483423 94.15078252 150.35018872 87.015625 150.28125 C81.39508269 149.75705434 78.3147654 147.48332507 74.5625 143.25 C73.7890625 142.13625 73.7890625 142.13625 73 141 C71.02 141.33 69.04 141.66 67 142 C67.63808594 143.09183594 68.27617187 144.18367187 68.93359375 145.30859375 C76.03054778 159.14708315 76.46347378 171.26561337 76.25 186.4375 C75.9069886 212.26791932 80.4723928 236.67699492 85.42871094 261.91577148 C85.57780002 262.67921969 85.7268891 263.4426679 85.88049603 264.22925091 C86.5847919 267.83246322 87.29979842 271.43252749 88.04353333 275.02781677 C89.53147152 282.46127049 90.39928715 289.41644417 90 297 C91.14814178 297.00808685 92.29628357 297.01617371 93.47921753 297.02450562 C104.28034534 297.1018691 115.08134567 297.18958326 125.88230705 297.28752708 C131.4356726 297.33755009 136.98901857 297.38387945 142.54248047 297.421875 C147.89825363 297.45865212 153.25386527 297.50499109 158.60950089 297.55806351 C160.65647687 297.57664785 162.70348752 297.59174074 164.75051498 297.60334396 C167.60972514 297.62013751 170.46856209 297.64915532 173.32763672 297.68115234 C174.60725281 297.68439262 174.60725281 297.68439262 175.91271973 297.68769836 C181.77189568 297.77189568 181.77189568 297.77189568 184 300 C184.265625 301.875 184.265625 301.875 184.25 304 C184.25515625 304.70125 184.2603125 305.4025 184.265625 306.125 C184 308 184 308 182 310 C179.26280302 310.19731408 176.6267687 310.2676549 173.88833618 310.25168228 C173.03568735 310.25458916 172.18303852 310.25749604 171.30455184 310.26049101 C168.41601813 310.26785358 165.52769271 310.26081873 162.63916016 310.25396729 C160.55995893 310.25626925 158.48075852 310.25944398 156.40155983 310.26342177 C150.66352466 310.27181476 144.92555552 310.26762418 139.18752003 310.26144934 C133.00885876 310.25694416 126.83020926 310.26389894 120.65155029 310.26940918 C109.23892318 310.27780958 97.82632316 310.27705192 86.41369671 310.27158624 C75.8719259 310.2665622 65.33016287 310.26523842 54.78839111 310.26763153 C54.09010007 310.2677843 53.39180902 310.26793707 52.67235763 310.26809447 C49.8380213 310.26871711 47.00368496 310.26935391 44.16934863 310.270014 C17.56170309 310.27613692 -9.04592895 310.27057729 -35.65357241 310.2598202 C-59.31137322 310.25032845 -82.9691525 310.25117768 -106.62695312 310.26074219 C-133.18482354 310.27144317 -159.74268201 310.27570274 -186.30055428 310.26951766 C-189.12983322 310.26887619 -191.95911217 310.26825051 -194.78839111 310.26763153 C-195.83341111 310.2673943 -195.83341111 310.2673943 -196.89954261 310.26715227 C-207.43667344 310.2648739 -217.97379566 310.26754425 -228.51092529 310.27259064 C-240.48782515 310.27829783 -252.46469956 310.27671035 -264.44159842 310.26602915 C-270.55817961 310.26075496 -276.67471699 310.25874525 -282.79129791 310.26532745 C-288.38209796 310.27125308 -293.97281327 310.2680683 -299.56360555 310.25737235 C-301.59452265 310.25512384 -303.6254468 310.25630671 -305.65635943 310.26112393 C-308.40045592 310.26713738 -311.14425566 310.2610375 -313.88833618 310.25168228 C-315.09248275 310.25870578 -315.09248275 310.25870578 -316.32095551 310.26587117 C-321.77169926 310.22830074 -321.77169926 310.22830074 -324 308 C-324.265625 306.125 -324.265625 306.125 -324.25 304 C-324.25773437 302.948125 -324.25773437 302.948125 -324.265625 301.875 C-324 300 -324 300 -322 298 C-319.36776733 297.75949097 -319.36776733 297.75949097 -315.98974609 297.77294922 C-314.09801163 297.77317581 -314.09801163 297.77317581 -312.1680603 297.77340698 C-310.78651778 297.78362102 -309.40497685 297.79405303 -308.0234375 297.8046875 C-306.61382243 297.80841712 -305.20420477 297.81126433 -303.79458618 297.81326294 C-300.08240618 297.82090345 -296.37038239 297.84055539 -292.65826416 297.8626709 C-288.87115594 297.88312041 -285.0840225 297.89226273 -281.296875 297.90234375 C-273.86451207 297.923801 -266.43227792 297.95794184 -259 298 C-258.8685408 297.26539551 -258.7370816 296.53079102 -258.60163879 295.77392578 C-258.42605942 294.7992334 -258.25048004 293.82454102 -258.06958008 292.8203125 C-257.89687088 291.85883301 -257.72416168 290.89735352 -257.54621887 289.90673828 C-256.73082211 285.56755283 -255.75324927 281.28369125 -254.6875 277 C-254.49994141 276.16855469 -254.31238281 275.33710938 -254.11914062 274.48046875 C-253.91869141 273.68253906 -253.71824219 272.88460938 -253.51171875 272.0625 C-253.34115967 271.35222656 -253.17060059 270.64195312 -252.99487305 269.91015625 C-251.09446932 266.2613811 -247.71038593 265.22927981 -243.95385742 264.0168457 C-242.84888916 263.73929443 -241.7439209 263.46174316 -240.60546875 263.17578125 C-239.40341797 262.86962891 -238.20136719 262.56347656 -236.96289062 262.24804688 C-235.71701172 261.93931641 -234.47113281 261.63058594 -233.1875 261.3125 C-231.92228516 260.99216797 -230.65707031 260.67183594 -229.35351562 260.34179688 C-226.23742317 259.55395463 -223.11964294 258.77364097 -220 258 C-219.80365967 256.96593018 -219.60731934 255.93186035 -219.4050293 254.86645508 C-218.67125481 251.01604362 -217.92458477 247.16822576 -217.17407227 243.32104492 C-216.85155818 241.65830923 -216.53250553 239.99489812 -216.21704102 238.33081055 C-215.76194724 235.93350557 -215.29429759 233.53893712 -214.82421875 231.14453125 C-214.68658615 230.4047554 -214.54895355 229.66497955 -214.40715027 228.90278625 C-213.57703814 224.74774447 -212.76692402 221.26483393 -210 218 C-207.12084961 216.8815918 -207.12084961 216.8815918 -203.65234375 216.19921875 C-202.40775391 215.94462891 -201.16316406 215.69003906 -199.88085938 215.42773438 C-198.56646039 215.18070136 -197.25200658 214.93395987 -195.9375 214.6875 C-194.61876214 214.4231048 -193.30039603 214.15684812 -191.98242188 213.88867188 C-182.51943994 212 -182.51943994 212 -180 212 C-179.938125 211.175 -179.87625 210.35 -179.8125 209.5 C-178.02812821 201.81347538 -173.31343242 196.51641421 -167 192 C-163.73994275 190.35611003 -160.37773735 189.12760814 -156.9375 187.9140625 C-155.98738037 187.56741547 -155.03726074 187.22076843 -154.05834961 186.86361694 C-152.06076529 186.13884659 -150.06045234 185.42155711 -148.05761719 184.71142578 C-145.0021488 183.62576351 -141.95799347 182.51207895 -138.9140625 181.39453125 C-136.96414958 180.69102109 -135.01364731 179.98914186 -133.0625 179.2890625 C-132.15814209 178.95790436 -131.25378418 178.62674622 -130.32202148 178.28555298 C-125.33513135 176.535844 -121.29117412 175.50772727 -116 176 C-112.82690734 178.03050398 -112.01612984 181.09918197 -110.8125 184.5625 C-110.46832031 185.53316406 -110.12414062 186.50382813 -109.76953125 187.50390625 C-109 190 -109 190 -109 192 C-97.12 187.71 -85.24 183.42 -73 179 C-73 176.36 -73 173.72 -73 171 C-70.91658478 163.98548646 -66.31545319 158.78484868 -61.38671875 153.5546875 C-58.23381776 150.17989659 -55.32195432 146.64952252 -52.4609375 143.02539062 C-50.86583641 141.06442904 -49.20762056 139.15255261 -47.48120117 137.30615234 C-39.21097507 127.92445952 -37.95284901 119.12195656 -36.75 106.9375 C-36.3774397 103.44282016 -35.97794611 99.95279334 -35.546875 96.46484375 C-35.44515991 95.63455658 -35.34344482 94.80426941 -35.23864746 93.94882202 C-34.34787118 87.6130446 -32.52461821 82.83353567 -29.21582031 77.31469727 C-27.68998996 74.84556193 -27.68998996 74.84556193 -28 71 C-29.5852814 69.34048941 -29.5852814 69.34048941 -31.6875 67.875 C-37.96626768 62.70751863 -40.77202645 55.69663591 -43 48 C-44.21236328 48.37705078 -44.21236328 48.37705078 -45.44921875 48.76171875 C-46.51785156 49.06722656 -47.58648437 49.37273438 -48.6875 49.6875 C-49.74324219 50.00074219 -50.79898437 50.31398437 -51.88671875 50.63671875 C-55 51 -55 51 -57.83203125 49.73046875 C-60 48 -60 48 -61 45.625 C-61 42.23550596 -60.10090855 40.62613568 -58 38 C-57.01 38 -56.02 38 -55 38 C-55.23976563 37.18402344 -55.23976563 37.18402344 -55.484375 36.3515625 C-57.43849495 27.43959123 -56.35868139 17.69958055 -51.7109375 9.8125 C-45.78877335 1.45179767 -38.25933329 -4.47171931 -28.10546875 -6.609375 C-17.6733213 -7.9215948 -8.70820927 -5.89709437 0 0 Z M-38.3359375 14.046875 C-42.94539992 19.45704216 -43.3678551 25.13337145 -43 32 C-40.91336071 33.32814871 -40.91336071 33.32814871 -38.14599609 32.15136719 C-36.35282959 31.48089355 -36.35282959 31.48089355 -34.5234375 30.796875 C-33.87935944 30.55841858 -33.23528137 30.31996216 -32.57168579 30.07427979 C-30.50339478 29.30663121 -28.43923678 28.52847644 -26.375 27.75 C-25.00676906 27.24019074 -23.63828206 26.73106811 -22.26953125 26.22265625 C-18.50966765 24.82393916 -14.75447275 23.41312258 -11 22 C-9.34643699 21.3799874 -7.69281091 20.76014291 -6.0390625 20.140625 C-5.03617187 19.76421875 -4.03328125 19.3878125 -3 19 C-4.58819788 13.4413074 -8.19968452 10.86687699 -12.875 7.75 C-22.77414659 4.25618356 -30.8817719 6.97878172 -38.3359375 14.046875 Z M-6.85546875 33.40625 C-7.84792351 33.77248474 -7.84792351 33.77248474 -8.86042786 34.14611816 C-10.97116507 34.92620743 -13.07932842 35.7130069 -15.1875 36.5 C-16.61897613 37.03039208 -18.05061494 37.56034534 -19.48242188 38.08984375 C-22.99018853 39.38814653 -26.49566197 40.69247252 -30 42 C-29.70936049 43.43356997 -29.41097335 44.86557048 -29.109375 46.296875 C-28.94405273 47.09448242 -28.77873047 47.89208984 -28.60839844 48.71386719 C-27.00200849 54.75007724 -22.85505328 58.45985698 -18 62 C-13.50660322 63.88432768 -8.46325671 63.50766049 -3.9375 61.9375 C1.10504649 58.61156508 4.79404264 54.73406354 6.625 48.875 C7.75054779 42.63037425 5.16211696 36.78053585 3 31 C-0.64258826 31 -3.49737051 32.14519168 -6.85546875 33.40625 Z M3.03125 71.8828125 C0.53851373 73.25381745 -1.86163011 73.83887118 -4.625 74.5 C-10.29347997 75.92494938 -13.85045629 77.91229403 -17.27539062 82.83203125 C-20.96962317 89.02547245 -22.18694725 94.78066769 -23.125 101.875 C-23.29056396 102.9690918 -23.45612793 104.06318359 -23.62670898 105.19042969 C-24.38576739 110.2518031 -25.05146238 115.30258102 -25.52734375 120.3984375 C-26.68125967 131.56984106 -29.61081107 137.67535449 -37.59082031 145.56640625 C-39.73022494 147.7428761 -41.60069225 150.11386608 -43.5 152.5 C-45.93255449 155.5098455 -48.39973019 158.46984878 -50.96875 161.36328125 C-51.47212891 161.93691406 -51.97550781 162.51054687 -52.49414062 163.1015625 C-53.47253809 164.21320476 -54.46037623 165.31663355 -55.45898438 166.41015625 C-58.46518864 169.84581827 -59.80322693 172.41518751 -60 177 C-58.53728198 179.43786336 -57.46690808 179.87030331 -54.75 180.625 C-47.68357414 179.01899412 -42.76936053 170.38286002 -38.45703125 165.02734375 C-36.28794863 162.35478567 -34.08541751 159.72002555 -31.85253906 157.10107422 C-30.9082401 155.99092012 -29.96877892 154.87663299 -29.03417969 153.75830078 C-26.95939764 151.27662685 -24.88082122 148.87689441 -22.62890625 146.55078125 C-16.45596886 139.87947827 -15.37474371 132.99521114 -14.29443359 124.30371094 C-13.79217143 120.37390513 -13.15102702 116.4699165 -12.5 112.5625 C-12.39324951 111.83474365 -12.28649902 111.1069873 -12.17651367 110.35717773 C-11.84375 108.31640625 -11.84375 108.31640625 -11 105 C-8 103 -8 103 -5.0625 102.875 C-1.29170304 104.26019072 -0.82039744 105.78892385 0.82577515 109.30560303 C3.44103097 115.30661496 5.89524683 121.37027285 8.33203125 127.4453125 C8.62749029 128.18070126 8.92294933 128.91609001 9.22736168 129.67376328 C10.7865777 133.55638237 12.34119967 137.44080579 13.89233398 141.32666016 C15.49182394 145.33069083 17.10819614 149.3276831 18.72829151 153.32341194 C19.97590579 156.40967671 21.21053254 159.5010173 22.44171715 162.59386826 C23.03206898 164.0701848 23.62734985 165.54454047 24.22770119 167.016819 C25.06516495 169.07385281 25.883861 171.13744844 26.69848633 173.20361328 C27.16829422 174.37417267 27.63810211 175.54473206 28.12214661 176.75076294 C29.09480175 180.35089385 29.01517364 182.43372284 28 186 C26.27289108 188.35961202 24.58993349 190.42482511 22.625 192.5625 C21.53732148 193.78867328 20.45009288 195.01524579 19.36328125 196.2421875 C18.80721191 196.8619043 18.25114258 197.48162109 17.67822266 198.12011719 C15.01288461 201.10573007 12.40885819 204.14192237 9.8125 207.1875 C9.34344238 207.72769775 8.87438477 208.26789551 8.39111328 208.82446289 C4.30182132 213.60699737 3.84871648 217.14055051 3.83886719 223.23779297 C3.83390228 223.97147095 3.82893738 224.70514893 3.82382202 225.46105957 C3.80921745 227.88811176 3.80240146 230.31509859 3.796875 232.7421875 C3.79112239 234.42986045 3.78536467 236.11753338 3.77960205 237.8052063 C3.76909709 241.34426172 3.76325104 244.88329446 3.75976562 248.42236328 C3.75428021 252.95413072 3.73024916 257.48559781 3.70179367 262.01727104 C3.68315805 265.50372185 3.67796121 268.99010042 3.67642975 272.47659683 C3.67340506 274.14713306 3.66538271 275.81766807 3.65224457 277.48815536 C3.63516349 279.82680796 3.63706898 282.16472806 3.64355469 284.50341797 C3.6343399 285.19138458 3.62512512 285.8793512 3.6156311 286.58816528 C3.65274493 290.86665838 4.29875005 293.64128385 7 297 C10 297.83333333 10 297.83333333 13 297 C16.21270148 292.98904178 16.35227012 289.75794413 16.28955078 284.72216797 C16.28315331 283.65029991 16.28315331 283.65029991 16.27662659 282.55677795 C16.26635301 281.01042314 16.249683 279.46410031 16.22729874 277.91787338 C16.1949016 275.46102713 16.18634817 273.00517507 16.18502808 270.54812622 C16.17943411 263.56450609 16.15072107 256.58168972 16.05859375 249.59863281 C16.00384967 245.31946918 15.9935824 241.04205983 16.01073837 236.76260757 C16.00880875 235.14159896 15.99056798 233.52051648 15.95492935 231.89989853 C15.78017024 223.71548626 15.86788819 217.4191877 21.27294922 210.74267578 C22.81899875 209.13279103 24.39467311 207.55078163 26 206 C27.55153806 204.27968517 29.09454282 202.55159583 30.625 200.8125 C31.35976563 200.00554687 32.09453125 199.19859375 32.8515625 198.3671875 C35.5039512 195.4447374 38.09849436 192.47464885 40.6875 189.49609375 C41.43549316 188.64347059 42.19798378 187.80201622 43 187 C45.9375 186.8125 45.9375 186.8125 49 187 C51 189 51 189 51.20974731 190.97305298 C51.19741058 191.79486053 51.18507385 192.61666809 51.17236328 193.46337891 C51.22994926 213.66628157 54.70187426 232.91403936 58.38366699 252.70996094 C59.04682372 256.30698895 59.6880647 259.90778923 60.32929802 263.50877953 C60.9521702 266.99500618 61.58612621 270.4791416 62.2237587 273.96269608 C62.5256265 275.61676716 62.82462573 277.27136454 63.12063217 278.9264946 C63.53288239 281.21928742 63.95942301 283.50895373 64.39013672 285.79833984 C64.50869019 286.47246918 64.62724365 287.14659851 64.74938965 287.84115601 C65.46777456 291.56333024 66.26954725 294.29950905 69 297 C72.04230823 297.50010524 72.04230823 297.50010524 75 297 C77.34743473 295.08115525 77.34743473 295.08115525 77.28686523 291.71630859 C77.1234902 285.54507381 75.66553545 279.56134637 74.41015625 273.5390625 C73.86401849 270.82048884 73.32722037 268.10009077 72.79052734 265.37963867 C72.65059577 264.67231755 72.5106642 263.96499643 72.36649227 263.23624134 C71.9308372 261.03268849 71.49651776 258.82887588 71.0625 256.625 C70.9158213 255.88250126 70.76914261 255.14000252 70.6180191 254.37500381 C64.32423906 222.38358746 64.32423906 222.38358746 65.17578125 208.50390625 C65.26046661 207.08417259 65.26046661 207.08417259 65.34686279 205.63575745 C65.46495622 203.75451131 65.58440842 201.87334994 65.70526123 199.99227905 C67.57084945 169.1651276 53.9218712 142.0528702 42.04052734 114.2956543 C41.64853244 113.37935242 41.25653753 112.46305054 40.85266399 111.51898193 C38.98185855 107.15864054 37.09061392 102.8092887 35.15797424 98.47598267 C34.81054232 97.68505376 34.46311039 96.89412485 34.10515022 96.0792284 C33.4629285 94.61788974 32.81087491 93.16081075 32.14658928 91.70936871 C30.23053104 87.31741416 29.51389352 83.77953951 30 79 C32 77 32 77 33.8190918 76.91357422 C39.77394059 77.63629832 45.16268236 79.13821552 50.8125 81.125 C51.70743164 81.43195801 52.60236328 81.73891602 53.52441406 82.05517578 C55.39815176 82.69974417 57.27037496 83.34873075 59.14111328 84.00195312 C62.01659761 85.00579428 64.8964454 85.99619115 67.77734375 86.984375 C69.60182733 87.61381623 71.42605571 88.24399775 73.25 88.875 C74.54514526 89.32190186 74.54514526 89.32190186 75.86645508 89.77783203 C81.8825924 91.8825924 81.8825924 91.8825924 83 93 C83.12323739 95.82415839 83.18614877 98.6276201 83.2109375 101.453125 C83.23901625 103.20443627 83.26768078 104.95573822 83.296875 106.70703125 C83.33808433 109.47639609 83.37495794 112.245589 83.40136719 115.01513672 C83.42902632 117.68233529 83.47491038 120.34873528 83.5234375 123.015625 C83.5283168 124.25182587 83.5283168 124.25182587 83.53329468 125.51300049 C83.6311072 130.1018052 83.92540195 133.33221735 87 137 C90 137.83333333 90 137.83333333 93 137 C96.87823264 132.52607994 96.43539004 127.66653987 96.3984375 122.0625 C96.40130768 121.10480713 96.40417786 120.14711426 96.40713501 119.16040039 C96.4091724 117.13980517 96.40366533 115.11919008 96.39111328 113.09863281 C96.37505521 110.01061791 96.39097323 106.92391182 96.41015625 103.8359375 C96.40817376 101.86978879 96.40432997 99.90364088 96.3984375 97.9375 C96.40754654 96.55606812 96.40754654 96.55606812 96.4168396 95.14672852 C96.4117995 88.49038213 96.4117995 88.49038213 93 83 C90.23878647 81.54503805 87.37490086 80.60524129 84.40625 79.66015625 C83.5455188 79.3707164 82.6847876 79.08127655 81.79797363 78.7830658 C79.03725796 77.85935845 76.26906802 76.96081753 73.5 76.0625 C71.69868339 75.46319526 69.89789576 74.8622981 68.09765625 74.25976562 C63.62927769 72.77034833 59.15236797 71.30919423 54.66998291 69.86251831 C52.87823729 69.28370809 51.08735106 68.7022313 49.29730225 68.11819458 C46.70784856 67.27352213 44.11607081 66.4364174 41.5234375 65.6015625 C40.74955688 65.3483876 39.97567627 65.09521271 39.17834473 64.83436584 C25.65645434 60.52167509 14.61021868 63.98360082 3.03125 71.8828125 Z M47 93 C48.77082477 98.90274924 50.38440569 104.27279497 52.69921875 109.8828125 C53.42915039 111.66171875 53.42915039 111.66171875 54.17382812 113.4765625 C54.9230957 115.28253906 54.9230957 115.28253906 55.6875 117.125 C56.20421013 118.3800297 56.72048907 119.63523702 57.23632812 120.890625 C58.48667447 123.92884977 59.74131204 126.9652238 61 130 C62.48011371 129.69201674 63.95907325 129.378482 65.4375 129.0625 C66.26121094 128.88847656 67.08492188 128.71445313 67.93359375 128.53515625 C69.97661204 128.19247006 69.97661204 128.19247006 71 127 C71.08748207 125.07332493 71.10697334 123.14348139 71.09765625 121.21484375 C71.09282227 119.46010742 71.09282227 119.46010742 71.08789062 117.66992188 C71.07951172 116.43822266 71.07113281 115.20652344 71.0625 113.9375 C71.05798828 112.70193359 71.05347656 111.46636719 71.04882812 110.19335938 C71.03699618 107.12888587 71.01906008 104.06443707 71 101 C63.08 98.36 55.16 95.72 47 93 Z M-3 135 C-3.16822266 135.89138672 -3.16822266 135.89138672 -3.33984375 136.80078125 C-5.02787755 143.89493636 -8.28175946 148.2708498 -13.13671875 153.65234375 C-15.31083528 155.89210333 -15.31083528 155.89210333 -15 159 C-5.595 155.535 -5.595 155.535 4 152 C1.75070135 145.17612739 1.75070135 145.17612739 -0.6875 138.4375 C-1.120625 137.303125 -1.55375 136.16875 -2 135 C-2.33 135 -2.66 135 -3 135 Z M3.05444336 165.08886719 C2.26609604 165.35374939 1.47774872 165.61863159 0.66551208 165.89154053 C-0.18445847 166.1903009 -1.03442902 166.48906128 -1.91015625 166.796875 C-2.79223251 167.10514221 -3.67430878 167.41340942 -4.58311462 167.73101807 C-6.45537742 168.39154821 -8.32566143 169.05770964 -10.1940918 169.72900391 C-13.01757749 170.73401005 -15.85400538 171.69326647 -18.69335938 172.65234375 C-28.589068 176.12615128 -35.68563426 179.04818079 -42.06030273 187.68847656 C-44.84738436 191.00982191 -47.48168002 191.85165839 -51.71875 192.265625 C-53.09546875 192.25789063 -53.09546875 192.25789063 -54.5 192.25 C-55.4178125 192.25515625 -56.335625 192.2603125 -57.28125 192.265625 C-60 192 -60 192 -62.12207031 190.81079102 C-66.50464326 189.5761011 -69.61638643 191.1731878 -73.765625 192.76171875 C-74.5996283 193.06817825 -75.43363159 193.37463776 -76.29290771 193.69038391 C-78.0508358 194.34072753 -79.80570397 194.99939465 -81.55761719 195.66577148 C-84.24697611 196.68635247 -86.94628998 197.67595823 -89.6484375 198.66210938 C-91.3548409 199.29767188 -93.06059451 199.93498227 -94.765625 200.57421875 C-95.98116058 201.01975349 -95.98116058 201.01975349 -97.22125244 201.47428894 C-99.18320242 202.22926578 -101.09785879 203.10496003 -103 204 C-104.45765224 208.37295672 -102.55852077 210.99519936 -100.8125 215.11328125 C-99.79230757 218.73790724 -99.54922426 220.48484174 -101 224 C-103.84045604 225.80405234 -106.88263288 226.81424069 -110.0625 227.875 C-110.91650391 228.18179688 -111.77050781 228.48859375 -112.65039062 228.8046875 C-114.76011414 229.55900205 -116.87526077 230.28932338 -119 231 C-116.78735743 233.48769483 -114.90758072 234.60241293 -111.796875 235.7421875 C-97.59157565 241.57776389 -97.59157565 241.57776389 -94.2265625 249.29296875 C-92.63031205 253.81876289 -91.42287083 258.41842096 -90.45458984 263.11743164 C-90.17291387 265.00087756 -90.17291387 265.00087756 -89 266 C-86.71011219 266.15888092 -84.41556559 266.25138073 -82.12109375 266.31640625 C-81.09110008 266.3475779 -81.09110008 266.3475779 -80.04029846 266.37937927 C-77.83947065 266.44494143 -75.63852025 266.50379015 -73.4375 266.5625 C-71.94855486 266.60567892 -70.45962227 266.649293 -68.97070312 266.69335938 C-65.31393447 266.8006293 -61.65702682 266.90187772 -58 267 C-56.45612213 269.91550111 -54.91533757 272.83262712 -53.375 275.75 C-52.73498047 276.95849609 -52.73498047 276.95849609 -52.08203125 278.19140625 C-48.62154135 284.75084232 -45.31898914 291.36202173 -42 298 C-30.78 298 -19.56 298 -8 298 C-7.9906543 295.37087646 -7.98130859 292.74175293 -7.97167969 290.03295898 C-7.93787659 281.33561723 -7.88230901 272.63851191 -7.81609726 263.94135952 C-7.77662815 258.66947136 -7.74443679 253.39775009 -7.72900391 248.12573242 C-7.71383374 243.03565295 -7.67938142 237.94603232 -7.63169098 232.8561573 C-7.61688096 230.91659603 -7.6089592 228.97696924 -7.60811615 227.03735161 C-7.60574361 224.31534068 -7.57864115 221.59459484 -7.54589844 218.87280273 C-7.55344398 217.67625565 -7.55344398 217.67625565 -7.56114197 216.45553589 C-7.41713032 208.69157235 -4.12392503 203.86134156 1.1875 198.25 C9.45797036 189.75354907 9.45797036 189.75354907 16 180 C15.16584305 177.41235115 14.26767368 174.95134071 13.25 172.4375 C12.98445312 171.73947266 12.71890625 171.04144531 12.4453125 170.32226562 C11.72082344 168.5092845 10.86734349 166.74914271 10 165 C6.72037465 163.90679155 6.16752697 164.0286484 3.05444336 165.08886719 Z M-133.80859375 193.703125 C-134.9532888 194.12171783 -134.9532888 194.12171783 -136.12110901 194.54876709 C-137.73511309 195.14136145 -139.34812362 195.73666782 -140.96020508 196.33447266 C-143.42055291 197.24373691 -145.88669086 198.13582722 -148.35351562 199.02734375 C-149.92226171 199.60572302 -151.49063402 200.18511732 -153.05859375 200.765625 C-153.79411972 201.02933899 -154.52964569 201.29305298 -155.28746033 201.5647583 C-159.34137863 203.09049289 -162.30470768 204.55331672 -165 208 C-165 208.66 -165 209.32 -165 210 C-161.31364031 211.77321415 -157.62571113 213.5431404 -153.9375 215.3125 C-152.89916016 215.81201172 -151.86082031 216.31152344 -150.79101562 216.82617188 C-148.76340402 217.79813807 -146.73017788 218.75848988 -144.69116211 219.70629883 C-142 221 -142 221 -140.07641602 222.15893555 C-137.41959555 223.67434826 -135.48368803 224.10151827 -132.50024414 223.4753418 C-129.61759396 222.50770173 -126.85434343 221.39163753 -124.0625 220.1875 C-123.09248047 219.79240234 -122.12246094 219.39730469 -121.12304688 218.99023438 C-118.73861054 218.01531705 -116.36607698 217.01848469 -114 216 C-115.31029872 212.20756899 -116.62361066 208.41618839 -117.9375 204.625 C-118.49727539 203.00464844 -118.49727539 203.00464844 -119.06835938 201.3515625 C-119.42607422 200.3203125 -119.78378906 199.2890625 -120.15234375 198.2265625 C-120.48226318 197.27346191 -120.81218262 196.32036133 -121.15209961 195.33837891 C-121.94164319 193.02043688 -121.94164319 193.02043688 -123 191 C-126.93614863 191 -130.16393699 192.35995205 -133.80859375 193.703125 Z M36.53385925 212.22233582 C29.93232348 218.90932382 26.83603798 224.13446069 26.72488689 233.6041441 C26.75443932 235.96375573 26.83893811 238.31764385 26.92578125 240.67578125 C26.94635076 242.33866679 26.96198369 244.00161994 26.97294617 245.66459656 C27.0145369 249.99826888 27.12219862 254.32775065 27.24468994 258.65979004 C27.35812883 263.09748659 27.40764725 267.53587449 27.46289062 271.97460938 C27.58013702 280.65185793 27.77325239 289.32492169 28 298 C36.58 298 45.16 298 54 298 C52.68398111 288.44920049 51.16236632 278.97711732 49.43359375 269.4921875 C49.19184627 268.15095731 48.95048633 266.80965722 48.70948792 265.46829224 C47.70013796 259.85304636 46.68569735 254.23873422 45.6652832 248.62548828 C45.03571186 245.16073803 44.41171651 241.69501942 43.79100227 238.22867203 C43.44450165 236.30281386 43.09190941 234.37805479 42.73912048 232.45333862 C41.40246894 224.97755132 40.47528807 217.58032479 40 210 C38.57052339 209.88842798 38.57052339 209.88842798 36.53385925 212.22233582 Z M-176.953125 224.3125 C-177.61334656 224.44567627 -178.27356812 224.57885254 -178.95379639 224.71606445 C-181.05328354 225.14042425 -183.15163423 225.57013314 -185.25 226 C-186.67701156 226.28941659 -188.10409419 226.57848304 -189.53125 226.8671875 C-193.02166574 227.57407045 -196.51108272 228.28575341 -200 229 C-201.52866591 233.30306331 -202.58484359 237.52353828 -203.4375 242.0078125 C-203.69522632 243.33725629 -203.95304145 244.66668287 -204.2109375 245.99609375 C-204.60772824 248.06718389 -205.00258344 250.13862206 -205.39550781 252.21044922 C-205.77952087 254.22723243 -206.17066104 256.24253747 -206.5625 258.2578125 C-206.79066406 259.4555127 -207.01882812 260.65321289 -207.25390625 261.88720703 C-208.50203013 267.09453017 -208.50203013 267.09453017 -210 269 C-212.38270776 269.92158123 -214.5095987 270.57041843 -216.9765625 271.140625 C-217.66181 271.31253357 -218.3470575 271.48444214 -219.05307007 271.66156006 C-221.24023132 272.20650429 -223.43215688 272.72844336 -225.625 273.25 C-227.10974586 273.61568501 -228.5941268 273.98285509 -230.078125 274.3515625 C-233.71436479 275.25452137 -237.35615691 276.12615637 -241 277 C-242.65 283.93 -244.3 290.86 -246 298 C-183.63 298 -121.26 298 -57 298 C-59.35355339 290.46793531 -59.35355339 290.46793531 -66 278 C-76.56 277.67 -87.12 277.34 -98 277 C-102 267 -102 267 -102.81640625 263.3125 C-103.84576289 258.7423721 -104.92015281 254.60513966 -108.72462463 251.66900635 C-110.91110058 250.41328433 -113.12742215 249.30571684 -115.40625 248.2265625 C-116.24301773 247.80903717 -117.07978546 247.39151184 -117.94190979 246.96133423 C-119.7180912 246.07618277 -121.49850337 245.19947731 -123.28274536 244.33068848 C-126.82956822 242.59374552 -130.33993238 240.78924698 -133.85313416 238.98553467 C-137.32791408 237.20657792 -140.81511923 235.45285144 -144.3034668 233.70068359 C-146.08810975 232.80248995 -147.87093816 231.90068346 -149.65209961 230.99560547 C-152.27335579 229.66380579 -154.89963574 228.34245218 -157.52734375 227.0234375 C-158.71939674 226.41427994 -158.71939674 226.41427994 -159.93553162 225.79281616 C-160.67473343 225.42467804 -161.41393524 225.05653992 -162.17553711 224.67724609 C-162.81994247 224.35211029 -163.46434784 224.02697449 -164.12828064 223.69198608 C-168.37734418 222.12108133 -172.67236633 223.44183722 -176.953125 224.3125 Z " fill="#000000" transform="translate(326,8)"/>
<path d="M0 0 C0.70125 0.00515625 1.4025 0.0103125 2.125 0.015625 C2.82625 0.01046875 3.5275 0.0053125 4.25 0 C6.125 0.265625 6.125 0.265625 8.125 2.265625 C8.4034729 4.25247192 8.4034729 4.25247192 8.44384766 6.71533203 C8.46371735 7.63613556 8.48358704 8.55693909 8.50405884 9.50564575 C8.51561005 10.50151703 8.52716125 11.49738831 8.5390625 12.5234375 C8.55842865 13.54162567 8.5777948 14.55981384 8.5977478 15.6088562 C8.65765355 18.86935989 8.70397299 22.12989867 8.75 25.390625 C8.78816965 27.59767187 8.82722077 29.80470369 8.8671875 32.01171875 C8.96336394 37.42955411 9.04837899 42.84747973 9.125 48.265625 C10.89335652 45.70410877 12.65973819 43.14123668 14.42578125 40.578125 C14.92372192 39.85689453 15.4216626 39.13566406 15.93469238 38.39257812 C18.86380974 34.13910643 21.72810018 29.86336888 24.41796875 25.453125 C26.8466785 23.76358778 29.18367915 23.61362681 32.09008789 23.73095703 C36.01551703 24.76235353 37.66365775 27.93306462 39.75 31.203125 C40.18828125 31.84314453 40.6265625 32.48316406 41.078125 33.14257812 C41.94982594 34.42336679 42.80941902 35.71250499 43.65493774 37.01072693 C45.18617774 39.35946427 46.73768596 41.69373584 48.29443359 44.02563477 C48.82684662 44.82340836 49.35925964 45.62118195 49.9078064 46.44313049 C50.30948029 47.04455368 50.71115417 47.64597687 51.125 48.265625 C51.13308685 47.69377472 51.14117371 47.12192444 51.14950562 46.53274536 C51.23537948 40.59565501 51.33487473 34.65890519 51.44238281 28.72216797 C51.48073134 26.5047781 51.51557371 24.28732476 51.546875 22.06982422 C51.59239826 18.88746411 51.65041319 15.70554318 51.7109375 12.5234375 C51.72248871 11.52756622 51.73403992 10.53169495 51.74594116 9.50564575 C51.76581085 8.58484222 51.78568054 7.6640387 51.80615234 6.71533203 C51.81947601 5.9025882 51.83279968 5.08984436 51.8465271 4.25247192 C52.125 2.265625 52.125 2.265625 54.125 0.265625 C56 0 56 0 58.125 0.015625 C58.82625 0.01046875 59.5275 0.0053125 60.25 0 C62.125 0.265625 62.125 0.265625 64.125 2.265625 C64.37896729 5.22607422 64.37896729 5.22607422 64.38378906 9.0703125 C64.3872937 9.76964905 64.39079834 10.4689856 64.39440918 11.18951416 C64.40322876 13.50665138 64.3973767 15.82348455 64.390625 18.140625 C64.39197159 19.74723367 64.39391207 21.35384195 64.39642334 22.96044922 C64.3993749 26.32979202 64.39507597 29.69902887 64.38574219 33.06835938 C64.37434758 37.39301994 64.38090689 41.71743229 64.39288712 46.04208374 C64.40010488 49.3602893 64.39781819 52.67843575 64.39263153 55.99664307 C64.3912948 57.591492 64.39294358 59.18634625 64.39759064 60.78118896 C64.40265456 63.00791698 64.39494788 65.23423976 64.38378906 67.4609375 C64.38219788 68.72953613 64.38060669 69.99813477 64.37896729 71.30517578 C64.125 74.265625 64.125 74.265625 62.125 76.265625 C59.01538558 76.69751589 57.10236433 76.94430992 54.125 76.265625 C51.87338257 74.08079283 50.51216883 72.41615686 48.875 69.828125 C47.9466251 68.46093036 47.01823924 67.09374316 46.08984375 65.7265625 C45.61272949 65.00307617 45.13561523 64.27958984 44.64404297 63.53417969 C43.06142542 61.17068206 41.41925066 58.86054899 39.75390625 56.5546875 C38.64840306 55.02085816 37.54293353 53.48700455 36.4375 51.953125 C35.90801758 51.21843994 35.37853516 50.48375488 34.83300781 49.72680664 C34.10549316 48.69994751 34.10549316 48.69994751 33.36328125 47.65234375 C32.714198 46.74295044 32.714198 46.74295044 32.05200195 45.81518555 C31.125 44.265625 31.125 44.265625 31.125 42.265625 C30.465 42.265625 29.805 42.265625 29.125 42.265625 C28.898125 42.94753906 28.67125 43.62945312 28.4375 44.33203125 C26.79862323 47.99511594 24.53592418 51.02514506 22.125 54.203125 C19.11703263 58.18707914 16.15388631 62.1559591 13.45703125 66.359375 C12.81991211 67.32822632 12.81991211 67.32822632 12.16992188 68.31665039 C11.36651254 69.54643327 10.58397465 70.79018522 9.82617188 72.04858398 C8.24950804 74.41805107 6.9640669 76.0811811 4.11474609 76.70751953 C1.94921875 76.76953125 1.94921875 76.76953125 -1.875 76.265625 C-4.73184606 73.40877894 -4.12877049 71.46207579 -4.13378906 67.4609375 C-4.1372937 66.76160095 -4.14079834 66.0622644 -4.14440918 65.34173584 C-4.15322876 63.02459862 -4.1473767 60.70776545 -4.140625 58.390625 C-4.14197159 56.78401633 -4.14391207 55.17740805 -4.14642334 53.57080078 C-4.1493749 50.20145798 -4.14507597 46.83222113 -4.13574219 43.46289062 C-4.12434758 39.13823006 -4.13090689 34.81381771 -4.14288712 30.48916626 C-4.15010488 27.1709607 -4.14781819 23.85281425 -4.14263153 20.53460693 C-4.1412948 18.939758 -4.14294358 17.34490375 -4.14759064 15.75006104 C-4.15265456 13.52333302 -4.14494788 11.29701024 -4.13378906 9.0703125 C-4.13219788 7.80171387 -4.13060669 6.53311523 -4.12896729 5.22607422 C-3.84860774 1.95797541 -3.44302608 0.48776203 0 0 Z " fill="#000000" transform="translate(69.875,337.734375)"/>
<path d="M0 0 C2.67615422 0.07899419 3.92025351 0.31871034 6.02832031 2.00244141 C7.79696977 4.0651516 9.36160502 6.19568376 10.9140625 8.42578125 C11.50598389 9.23096191 12.09790527 10.03614258 12.70776367 10.86572266 C13.95630472 12.56898232 15.1936476 14.28049983 16.42041016 15.99951172 C18.25030576 18.55907042 20.11202125 21.09147201 21.98828125 23.6171875 C24.28429581 26.70877508 26.56923309 29.80768007 28.83984375 32.91796875 C32.93893821 38.52101195 37.11523214 44.06580753 41.2890625 49.61328125 C41.29714935 49.02890289 41.30523621 48.44452454 41.31356812 47.84243774 C41.39943814 41.7755915 41.49893325 35.70907866 41.60644531 29.64257812 C41.64479521 27.37668443 41.67963733 25.1107286 41.7109375 22.84472656 C41.75645777 19.59287258 41.81447326 16.34144865 41.875 13.08984375 C41.88655121 12.07209869 41.89810242 11.05435364 41.91000366 10.00576782 C41.92987335 9.06494354 41.94974304 8.12411926 41.97021484 7.15478516 C41.98353851 6.32427643 41.99686218 5.4937677 42.0105896 4.63809204 C42.2890625 2.61328125 42.2890625 2.61328125 44.2890625 0.61328125 C46.1640625 0.34765625 46.1640625 0.34765625 48.2890625 0.36328125 C48.9903125 0.358125 49.6915625 0.35296875 50.4140625 0.34765625 C52.2890625 0.61328125 52.2890625 0.61328125 54.2890625 2.61328125 C54.54302979 5.57373047 54.54302979 5.57373047 54.54785156 9.41796875 C54.5513562 10.1173053 54.55486084 10.81664185 54.55847168 11.53717041 C54.56729126 13.85430763 54.5614392 16.1711408 54.5546875 18.48828125 C54.55603409 20.09488992 54.55797457 21.7014982 54.56048584 23.30810547 C54.5634374 26.67744827 54.55913847 30.04668512 54.54980469 33.41601562 C54.53841008 37.74067619 54.54496939 42.06508854 54.55694962 46.38973999 C54.56416738 49.70794555 54.56188069 53.026092 54.55669403 56.34429932 C54.5553573 57.93914825 54.55700608 59.5340025 54.56165314 61.12884521 C54.56671706 63.35557323 54.55901038 65.58189601 54.54785156 67.80859375 C54.54626038 69.07719238 54.54466919 70.34579102 54.54302979 71.65283203 C54.2890625 74.61328125 54.2890625 74.61328125 52.2890625 76.61328125 C49.07779503 77.14398545 47.34795968 77.40510346 44.2890625 76.61328125 C41.53210966 74.41127934 39.66982585 71.68205039 37.6640625 68.80078125 C37.07214111 67.99560059 36.48021973 67.19041992 35.87036133 66.36083984 C34.62182028 64.65758018 33.3844774 62.94606267 32.15771484 61.22705078 C30.32781924 58.66749208 28.46610375 56.13509049 26.58984375 53.609375 C24.29382919 50.51778742 22.00889191 47.41888243 19.73828125 44.30859375 C15.63918679 38.70555055 11.46289286 33.16075497 7.2890625 27.61328125 C7.28097565 28.19765961 7.27288879 28.78203796 7.26455688 29.38412476 C7.17868686 35.450971 7.07919175 41.51748384 6.97167969 47.58398438 C6.93332979 49.84987807 6.89848767 52.1158339 6.8671875 54.38183594 C6.82166723 57.63368992 6.76365174 60.88511385 6.703125 64.13671875 C6.68579819 65.66333633 6.68579819 65.66333633 6.66812134 67.22079468 C6.64825165 68.16161896 6.62838196 69.10244324 6.60791016 70.07177734 C6.59458649 70.90228607 6.58126282 71.7327948 6.5675354 72.58847046 C6.2890625 74.61328125 6.2890625 74.61328125 4.2890625 76.61328125 C2.4140625 76.87890625 2.4140625 76.87890625 0.2890625 76.86328125 C-0.4121875 76.8684375 -1.1134375 76.87359375 -1.8359375 76.87890625 C-3.7109375 76.61328125 -3.7109375 76.61328125 -5.7109375 74.61328125 C-5.96490479 71.65283203 -5.96490479 71.65283203 -5.96972656 67.80859375 C-5.9732312 67.1092572 -5.97673584 66.40992065 -5.98034668 65.68939209 C-5.98916626 63.37225487 -5.9833142 61.0554217 -5.9765625 58.73828125 C-5.97790909 57.13167258 -5.97984957 55.5250643 -5.98236084 53.91845703 C-5.9853124 50.54911423 -5.98101347 47.17987738 -5.97167969 43.81054688 C-5.96028508 39.48588631 -5.96684439 35.16147396 -5.97882462 30.83682251 C-5.98604238 27.51861695 -5.98375569 24.2004705 -5.97856903 20.88226318 C-5.9772323 19.28741425 -5.97888108 17.69256 -5.98352814 16.09771729 C-5.98859206 13.87098927 -5.98088538 11.64466649 -5.96972656 9.41796875 C-5.96813538 8.14937012 -5.96654419 6.88077148 -5.96490479 5.57373047 C-5.5752001 1.03101574 -4.42720438 0.73165378 0 0 Z " fill="#000000" transform="translate(407.7109375,337.38671875)"/>
<path d="M0 0 C7.31507241 5.24591715 7.31507241 5.24591715 8.80078125 9.05078125 C9.10486224 12.02600509 7.66967372 13.62392586 6 16 C5 17 5 17 2.4375 17.4375 C-1.88821053 16.88695502 -3.88246209 15.15131861 -7.16796875 12.41015625 C-11.92099459 8.75164382 -18.31841718 9.49529087 -24 10 C-29.39344017 11.46292658 -33.05613735 14.31528929 -36.03515625 19.01953125 C-40.32405606 27.82306245 -39.94675888 37.68006371 -36.90625 46.7734375 C-34.86078302 51.79893827 -31.78446576 54.69748057 -26.98046875 57.20703125 C-20.74386715 59.70413209 -15.19890751 59.35085701 -9.00390625 56.9375 C-4.36204432 54.76586869 -2.06004093 52.4009652 0.13671875 47.85546875 C0.48822998 47.13383545 0.83974121 46.41220215 1.2019043 45.66870117 C1.46527588 45.11802979 1.72864746 44.5673584 2 44 C1.10692139 44.01571045 1.10692139 44.01571045 0.19580078 44.03173828 C-2.49442343 44.07323949 -5.18458037 44.09930704 -7.875 44.125 C-8.81214844 44.14175781 -9.74929687 44.15851563 -10.71484375 44.17578125 C-11.61074219 44.18222656 -12.50664062 44.18867188 -13.4296875 44.1953125 C-14.25710449 44.20578613 -15.08452148 44.21625977 -15.93701172 44.22705078 C-18 44 -18 44 -20 42 C-20.265625 40.125 -20.265625 40.125 -20.25 38 C-20.25515625 37.29875 -20.2603125 36.5975 -20.265625 35.875 C-20 34 -20 34 -18 32 C-14.8671875 31.74121094 -14.8671875 31.74121094 -10.875 31.734375 C-10.1722998 31.73246155 -9.46959961 31.7305481 -8.74560547 31.72857666 C-7.25943646 31.72721525 -5.77325555 31.73090868 -4.28710938 31.73925781 C-2.00884354 31.74995846 0.26863377 31.73936161 2.546875 31.7265625 C3.98958508 31.7278841 5.43229466 31.73044651 6.875 31.734375 C8.19242187 31.73663086 9.50984375 31.73888672 10.8671875 31.74121094 C14 32 14 32 16 34 C17.31399877 43.65636307 14.92946761 51.63036737 9.8125 59.75 C6.63356243 63.88456911 2.50281956 66.47290739 -2 69 C-2.59296875 69.34289062 -3.1859375 69.68578125 -3.796875 70.0390625 C-11.12100365 73.50668093 -21.27836582 73.13907128 -29.01171875 71.2734375 C-31.47790543 70.34436871 -33.70613602 69.29375631 -36 68 C-36.64324219 67.649375 -37.28648437 67.29875 -37.94921875 66.9375 C-45.26270287 62.36855547 -49.88992645 54.22186531 -52 46 C-53.36171128 34.59890779 -54.16985912 21.31500043 -47.8359375 11.30859375 C-36.39651187 -3.07587549 -17.02022257 -10.40630364 0 0 Z " fill="#000000" transform="translate(262,438)"/>
<path d="M0 0 C2.11889765 -0.01176898 4.23475631 -0.06080706 6.35302734 -0.11157227 C15.4335906 -0.2208661 23.09097297 0.77732465 30.04980469 7.16625977 C36.53865265 14.04563073 37.78469469 20.63968164 37.56787109 29.91381836 C36.58308041 38.26595824 32.30843929 43.98656115 26.15380859 49.42553711 C26.69650391 50.06620117 27.23919922 50.70686523 27.79833984 51.36694336 C34.04073881 58.91405995 38.0072239 64.35523646 37.15380859 74.42553711 C34.58709696 76.99224874 32.63554876 76.78080076 29.12646484 76.98413086 C27.15380859 76.42553711 27.15380859 76.42553711 25.56396484 74.19897461 C25.09861328 73.28374023 24.63326172 72.36850586 24.15380859 71.42553711 C20.31636249 64.29719026 16.34674999 57.58073553 9.15380859 53.42553711 C5.09812415 52.53240804 1.28896683 52.39619264 -2.84619141 52.42553711 C-2.83571777 53.08150879 -2.82524414 53.73748047 -2.81445312 54.41333008 C-2.77296638 57.37569369 -2.74688879 60.33799627 -2.72119141 63.30053711 C-2.70443359 64.33307617 -2.68767578 65.36561523 -2.67041016 66.42944336 C-2.66396484 67.41557617 -2.65751953 68.40170898 -2.65087891 69.41772461 C-2.64040527 70.32893066 -2.62993164 71.24013672 -2.61914062 72.17895508 C-2.84619141 74.42553711 -2.84619141 74.42553711 -4.84619141 76.42553711 C-6.72119141 76.69116211 -6.72119141 76.69116211 -8.84619141 76.67553711 C-9.54744141 76.68069336 -10.24869141 76.68584961 -10.97119141 76.69116211 C-12.84619141 76.42553711 -12.84619141 76.42553711 -14.84619141 74.42553711 C-15.10015869 71.46508789 -15.10015869 71.46508789 -15.10498047 67.62084961 C-15.10848511 66.92151306 -15.11198975 66.22217651 -15.11560059 65.50164795 C-15.12442016 63.18451073 -15.1185681 60.86767756 -15.11181641 58.55053711 C-15.113163 56.94392844 -15.11510347 55.33732016 -15.11761475 53.73071289 C-15.12056631 50.36137009 -15.11626737 46.99213323 -15.10693359 43.62280273 C-15.09553899 39.29814217 -15.10209829 34.97372982 -15.11407852 30.64907837 C-15.12129628 27.33087281 -15.11900959 24.01272636 -15.11382294 20.69451904 C-15.1124862 19.09967011 -15.11413498 17.50481586 -15.11878204 15.90997314 C-15.12384597 13.68324513 -15.11613929 11.45692235 -15.10498047 9.23022461 C-15.10338928 7.96162598 -15.1017981 6.69302734 -15.10015869 5.38598633 C-14.453136 -2.15623642 -5.82245797 0.01528379 0 0 Z M-2.84619141 12.42553711 C-2.84619141 21.66553711 -2.84619141 30.90553711 -2.84619141 40.42553711 C10.74269865 41.36189058 10.74269865 41.36189058 21.59130859 35.42553711 C24.46386173 31.70902632 25.04019359 28.50620128 24.73583984 23.86303711 C23.72508425 19.63007407 21.56716233 17.04473248 18.15380859 14.42553711 C11.32553115 11.15365417 5.03215478 12.42553711 -2.84619141 12.42553711 Z " fill="#000000" transform="translate(304.84619140625,433.574462890625)"/>
<path d="M0 0 C2.11889765 -0.01176898 4.23475631 -0.06080706 6.35302734 -0.11157227 C15.4335906 -0.2208661 23.09097297 0.77732465 30.04980469 7.16625977 C36.53865265 14.04563073 37.78469469 20.63968164 37.56787109 29.91381836 C36.58308041 38.26595824 32.30843929 43.98656115 26.15380859 49.42553711 C26.69650391 50.06620117 27.23919922 50.70686523 27.79833984 51.36694336 C34.04073881 58.91405995 38.0072239 64.35523646 37.15380859 74.42553711 C34.58709696 76.99224874 32.63554876 76.78080076 29.12646484 76.98413086 C27.15380859 76.42553711 27.15380859 76.42553711 25.56396484 74.19897461 C25.09861328 73.28374023 24.63326172 72.36850586 24.15380859 71.42553711 C20.31636249 64.29719026 16.34674999 57.58073553 9.15380859 53.42553711 C5.09812415 52.53240804 1.28896683 52.39619264 -2.84619141 52.42553711 C-2.83571777 53.08150879 -2.82524414 53.73748047 -2.81445312 54.41333008 C-2.77296638 57.37569369 -2.74688879 60.33799627 -2.72119141 63.30053711 C-2.70443359 64.33307617 -2.68767578 65.36561523 -2.67041016 66.42944336 C-2.66396484 67.41557617 -2.65751953 68.40170898 -2.65087891 69.41772461 C-2.64040527 70.32893066 -2.62993164 71.24013672 -2.61914062 72.17895508 C-2.84619141 74.42553711 -2.84619141 74.42553711 -4.84619141 76.42553711 C-6.72119141 76.69116211 -6.72119141 76.69116211 -8.84619141 76.67553711 C-9.54744141 76.68069336 -10.24869141 76.68584961 -10.97119141 76.69116211 C-12.84619141 76.42553711 -12.84619141 76.42553711 -14.84619141 74.42553711 C-15.10015869 71.46508789 -15.10015869 71.46508789 -15.10498047 67.62084961 C-15.10848511 66.92151306 -15.11198975 66.22217651 -15.11560059 65.50164795 C-15.12442016 63.18451073 -15.1185681 60.86767756 -15.11181641 58.55053711 C-15.113163 56.94392844 -15.11510347 55.33732016 -15.11761475 53.73071289 C-15.12056631 50.36137009 -15.11626737 46.99213323 -15.10693359 43.62280273 C-15.09553899 39.29814217 -15.10209829 34.97372982 -15.11407852 30.64907837 C-15.12129628 27.33087281 -15.11900959 24.01272636 -15.11382294 20.69451904 C-15.1124862 19.09967011 -15.11413498 17.50481586 -15.11878204 15.90997314 C-15.12384597 13.68324513 -15.11613929 11.45692235 -15.10498047 9.23022461 C-15.10338928 7.96162598 -15.1017981 6.69302734 -15.10015869 5.38598633 C-14.453136 -2.15623642 -5.82245797 0.01528379 0 0 Z M-2.84619141 12.42553711 C-2.84619141 21.66553711 -2.84619141 30.90553711 -2.84619141 40.42553711 C10.74269865 41.36189058 10.74269865 41.36189058 21.59130859 35.42553711 C24.46386173 31.70902632 25.04019359 28.50620128 24.73583984 23.86303711 C23.72508425 19.63007407 21.56716233 17.04473248 18.15380859 14.42553711 C11.32553115 11.15365417 5.03215478 12.42553711 -2.84619141 12.42553711 Z " fill="#000000" transform="translate(88.84619140625,433.574462890625)"/>
<path d="M0 0 C2.11889765 -0.01176898 4.23475631 -0.06080706 6.35302734 -0.11157227 C15.4335906 -0.2208661 23.09097297 0.77732465 30.04980469 7.16625977 C36.53865265 14.04563073 37.78469469 20.63968164 37.56787109 29.91381836 C36.58308041 38.26595824 32.30843929 43.98656115 26.15380859 49.42553711 C26.69650391 50.06620117 27.23919922 50.70686523 27.79833984 51.36694336 C34.04073881 58.91405995 38.0072239 64.35523646 37.15380859 74.42553711 C34.58709696 76.99224874 32.63554876 76.78080076 29.12646484 76.98413086 C27.15380859 76.42553711 27.15380859 76.42553711 25.56396484 74.19897461 C25.09861328 73.28374023 24.63326172 72.36850586 24.15380859 71.42553711 C20.31636249 64.29719026 16.34674999 57.58073553 9.15380859 53.42553711 C5.09812415 52.53240804 1.28896683 52.39619264 -2.84619141 52.42553711 C-2.83571777 53.08150879 -2.82524414 53.73748047 -2.81445312 54.41333008 C-2.77296638 57.37569369 -2.74688879 60.33799627 -2.72119141 63.30053711 C-2.70443359 64.33307617 -2.68767578 65.36561523 -2.67041016 66.42944336 C-2.66396484 67.41557617 -2.65751953 68.40170898 -2.65087891 69.41772461 C-2.64040527 70.32893066 -2.62993164 71.24013672 -2.61914062 72.17895508 C-2.84619141 74.42553711 -2.84619141 74.42553711 -4.84619141 76.42553711 C-6.72119141 76.69116211 -6.72119141 76.69116211 -8.84619141 76.67553711 C-9.54744141 76.68069336 -10.24869141 76.68584961 -10.97119141 76.69116211 C-12.84619141 76.42553711 -12.84619141 76.42553711 -14.84619141 74.42553711 C-15.10015869 71.46508789 -15.10015869 71.46508789 -15.10498047 67.62084961 C-15.10848511 66.92151306 -15.11198975 66.22217651 -15.11560059 65.50164795 C-15.12442016 63.18451073 -15.1185681 60.86767756 -15.11181641 58.55053711 C-15.113163 56.94392844 -15.11510347 55.33732016 -15.11761475 53.73071289 C-15.12056631 50.36137009 -15.11626737 46.99213323 -15.10693359 43.62280273 C-15.09553899 39.29814217 -15.10209829 34.97372982 -15.11407852 30.64907837 C-15.12129628 27.33087281 -15.11900959 24.01272636 -15.11382294 20.69451904 C-15.1124862 19.09967011 -15.11413498 17.50481586 -15.11878204 15.90997314 C-15.12384597 13.68324513 -15.11613929 11.45692235 -15.10498047 9.23022461 C-15.10338928 7.96162598 -15.1017981 6.69302734 -15.10015869 5.38598633 C-14.453136 -2.15623642 -5.82245797 0.01528379 0 0 Z M-2.84619141 12.42553711 C-2.84619141 21.66553711 -2.84619141 30.90553711 -2.84619141 40.42553711 C10.74269865 41.36189058 10.74269865 41.36189058 21.59130859 35.42553711 C24.46386173 31.70902632 25.04019359 28.50620128 24.73583984 23.86303711 C23.72508425 19.63007407 21.56716233 17.04473248 18.15380859 14.42553711 C11.32553115 11.15365417 5.03215478 12.42553711 -2.84619141 12.42553711 Z " fill="#000000" transform="translate(232.84619140625,337.574462890625)"/>
<path d="M0 0 C6.33188912 4.48591518 10.28950834 10.32237324 12.4921875 17.765625 C13.03165255 22.33875992 13.15223671 26.86024287 13.12353516 31.45727539 C13.11722548 33.56543457 13.1641918 35.66792507 13.21484375 37.77539062 C13.30644844 47.63813804 11.43476088 56.10934763 4.75073242 63.75854492 C3.09525738 65.34661756 1.43483755 66.54844592 -0.5078125 67.765625 C-1.12914062 68.17554688 -1.75046875 68.58546875 -2.390625 69.0078125 C-9.37023488 72.85588639 -17.76826295 73.01617024 -25.5078125 71.765625 C-34.15101509 69.02651377 -39.8979434 64.59892927 -44.60498047 56.99267578 C-48.08729633 50.26975578 -48.18548447 43.49358576 -48.13916016 36.07397461 C-48.13285048 33.96581543 -48.1798168 31.86332493 -48.23046875 29.75585938 C-48.32207344 19.89311196 -46.45038588 11.42190237 -39.76635742 3.77270508 C-38.11088238 2.18463244 -36.45046255 0.98280408 -34.5078125 -0.234375 C-33.88648438 -0.64429688 -33.26515625 -1.05421875 -32.625 -1.4765625 C-22.455808 -7.08315125 -9.72162164 -5.63801363 0 0 Z M-31.7578125 15.015625 C-37.15430118 23.49582149 -36.43865855 35.16508029 -35.078125 44.8125 C-33.59450466 50.85687918 -30.81623894 54.4961169 -25.5078125 57.765625 C-20.10861393 59.56535786 -14.57223985 59.46675127 -9.1953125 57.640625 C-4.1721635 54.13610244 -1.00844268 50.45627592 0.2109375 44.359375 C1.20860965 35.15862075 2.05912749 24.12249088 -2.5078125 15.765625 C-5.702194 12.16455141 -9.19884947 8.97647342 -14.1171875 8.52734375 C-22.10977737 8.33846414 -25.99831975 9.25613225 -31.7578125 15.015625 Z " fill="#000000" transform="translate(185.5078125,438.234375)"/>
<path d="M0 0 C6.33188912 4.48591518 10.28950834 10.32237324 12.4921875 17.765625 C13.03165255 22.33875992 13.15223671 26.86024287 13.12353516 31.45727539 C13.11722548 33.56543457 13.1641918 35.66792507 13.21484375 37.77539062 C13.30644844 47.63813804 11.43476088 56.10934763 4.75073242 63.75854492 C3.09525738 65.34661756 1.43483755 66.54844592 -0.5078125 67.765625 C-1.12914062 68.17554688 -1.75046875 68.58546875 -2.390625 69.0078125 C-9.37023488 72.85588639 -17.76826295 73.01617024 -25.5078125 71.765625 C-34.15101509 69.02651377 -39.8979434 64.59892927 -44.60498047 56.99267578 C-48.08729633 50.26975578 -48.18548447 43.49358576 -48.13916016 36.07397461 C-48.13285048 33.96581543 -48.1798168 31.86332493 -48.23046875 29.75585938 C-48.32207344 19.89311196 -46.45038588 11.42190237 -39.76635742 3.77270508 C-38.11088238 2.18463244 -36.45046255 0.98280408 -34.5078125 -0.234375 C-33.88648438 -0.64429688 -33.26515625 -1.05421875 -32.625 -1.4765625 C-22.455808 -7.08315125 -9.72162164 -5.63801363 0 0 Z M-31.7578125 15.015625 C-37.15430118 23.49582149 -36.43865855 35.16508029 -35.078125 44.8125 C-33.59450466 50.85687918 -30.81623894 54.4961169 -25.5078125 57.765625 C-20.10861393 59.56535786 -14.57223985 59.46675127 -9.1953125 57.640625 C-4.1721635 54.13610244 -1.00844268 50.45627592 0.2109375 44.359375 C1.20860965 35.15862075 2.05912749 24.12249088 -2.5078125 15.765625 C-5.702194 12.16455141 -9.19884947 8.97647342 -14.1171875 8.52734375 C-22.10977737 8.33846414 -25.99831975 9.25613225 -31.7578125 15.015625 Z " fill="#000000" transform="translate(193.5078125,342.234375)"/>
<path d="M0 0 C0.70125 0.00515625 1.4025 0.0103125 2.125 0.015625 C2.82625 0.01046875 3.5275 0.0053125 4.25 0 C6.125 0.265625 6.125 0.265625 8.125 2.265625 C8.37015697 4.76937968 8.49833658 7.17111979 8.5390625 9.6796875 C8.55842865 10.40932709 8.5777948 11.13896667 8.5977478 11.89071655 C8.65758422 14.22390002 8.70394423 16.55713273 8.75 18.890625 C8.78817614 20.47137582 8.82722765 22.05210576 8.8671875 23.6328125 C8.96328878 27.5102473 9.04730412 31.38777949 9.125 35.265625 C9.71087891 34.54697266 10.29675781 33.82832031 10.90039062 33.08789062 C15.54995166 27.39322728 20.21750022 21.72258636 25.01489258 16.15161133 C27.28966258 13.4950232 29.4829906 10.82356479 31.54296875 7.99609375 C37.04091334 0.62449507 37.04091334 0.62449507 40.390625 -0.484375 C42.5625 -0.546875 42.5625 -0.546875 46.125 0.265625 C48.125 2.265625 48.125 2.265625 48.62109375 5.93359375 C48.47663668 11.22836334 45.72760662 13.91205679 42.1875 17.578125 C40.99642189 18.88192343 39.80632423 20.18661818 38.6171875 21.4921875 C38.02647461 22.12801758 37.43576172 22.76384766 36.82714844 23.41894531 C34.412706 26.03840065 32.10267591 28.72393773 29.8125 31.453125 C29.09449219 32.29230469 28.37648438 33.13148438 27.63671875 33.99609375 C25.75542028 36.36598623 25.75542028 36.36598623 26.125 40.265625 C27.15217872 41.9893745 27.15217872 41.9893745 28.65234375 43.55078125 C29.1935083 44.15849365 29.73467285 44.76620605 30.29223633 45.39233398 C30.87642334 46.03114502 31.46061035 46.66995605 32.0625 47.328125 C33.253191 48.67396021 34.44329146 50.02031811 35.6328125 51.3671875 C37.28874578 53.22186891 38.94853476 55.07214553 40.62402344 56.90917969 C48.64821258 65.735215 48.64821258 65.735215 48.8125 70.828125 C48.125 74.265625 48.125 74.265625 46.125 76.265625 C39.49414638 77.24668519 39.49414638 77.24668519 36.39892578 75.02880859 C34.69971777 73.24886068 33.18889556 71.40276465 31.6875 69.453125 C31.13473389 68.77620605 30.58196777 68.09928711 30.01245117 67.40185547 C28.36141307 65.37293809 26.74225048 63.32151177 25.125 61.265625 C23.40432785 59.13356431 21.67077648 57.01249088 19.9375 54.890625 C19.24269531 54.01664062 18.54789062 53.14265625 17.83203125 52.2421875 C16.27073317 50.17823518 16.27073317 50.17823518 14.125 49.265625 C13.856875 49.843125 13.58875 50.420625 13.3125 51.015625 C12.125 53.265625 12.125 53.265625 10.5859375 54.8671875 C8.42198158 58.41977823 8.63449756 61.80390616 8.5625 65.890625 C8.38041631 74.01020869 8.38041631 74.01020869 6.125 76.265625 C4.25 76.53125 4.25 76.53125 2.125 76.515625 C1.42375 76.52078125 0.7225 76.5259375 0 76.53125 C-1.875 76.265625 -1.875 76.265625 -3.875 74.265625 C-4.12896729 71.30517578 -4.12896729 71.30517578 -4.13378906 67.4609375 C-4.1372937 66.76160095 -4.14079834 66.0622644 -4.14440918 65.34173584 C-4.15322876 63.02459862 -4.1473767 60.70776545 -4.140625 58.390625 C-4.14197159 56.78401633 -4.14391207 55.17740805 -4.14642334 53.57080078 C-4.1493749 50.20145798 -4.14507597 46.83222113 -4.13574219 43.46289062 C-4.12434758 39.13823006 -4.13090689 34.81381771 -4.14288712 30.48916626 C-4.15010488 27.1709607 -4.14781819 23.85281425 -4.14263153 20.53460693 C-4.1412948 18.939758 -4.14294358 17.34490375 -4.14759064 15.75006104 C-4.15265456 13.52333302 -4.14494788 11.29701024 -4.13378906 9.0703125 C-4.13219788 7.80171387 -4.13060669 6.53311523 -4.12896729 5.22607422 C-3.84860774 1.95797541 -3.44302608 0.48776203 0 0 Z " fill="#000000" transform="translate(285.875,337.734375)"/>
<path d="M0 0 C0.70793701 0.00016113 1.41587402 0.00032227 2.14526367 0.00048828 C4.27476628 -0.00384144 6.4021205 -0.04002088 8.53125 -0.078125 C17.66252494 -0.15610756 24.66996996 0.53018708 31.80273438 6.51953125 C32.73279297 7.62167969 32.73279297 7.62167969 33.68164062 8.74609375 C34.63876953 9.84050781 34.63876953 9.84050781 35.61523438 10.95703125 C40.19714614 17.74749041 40.079274 25.47212394 39.24414062 33.37109375 C36.7347985 41.75050408 31.74414215 46.93335223 24.20117188 51.01953125 C19.36018217 53.02161342 14.46131824 52.69600484 9.30664062 52.55859375 C8.33662109 52.54505859 7.36660156 52.53152344 6.3671875 52.51757812 C3.99224933 52.48248052 1.61849685 52.4333165 -0.75585938 52.37109375 C-0.74538574 53.02706543 -0.73491211 53.68303711 -0.72412109 54.35888672 C-0.68263435 57.32125033 -0.65655676 60.28355291 -0.63085938 63.24609375 C-0.61410156 64.27863281 -0.59734375 65.31117188 -0.58007812 66.375 C-0.57363281 67.36113281 -0.5671875 68.34726562 -0.56054688 69.36328125 C-0.55007324 70.2744873 -0.53959961 71.18569336 -0.52880859 72.12451172 C-0.75585938 74.37109375 -0.75585938 74.37109375 -2.75585938 76.37109375 C-4.63085937 76.63671875 -4.63085937 76.63671875 -6.75585938 76.62109375 C-7.45710937 76.62625 -8.15835937 76.63140625 -8.88085938 76.63671875 C-10.75585937 76.37109375 -10.75585937 76.37109375 -12.75585938 74.37109375 C-13.00982666 71.41064453 -13.00982666 71.41064453 -13.01464844 67.56640625 C-13.01815308 66.8670697 -13.02165771 66.16773315 -13.02526855 65.44720459 C-13.03408813 63.13006737 -13.02823607 60.8132342 -13.02148438 58.49609375 C-13.02283096 56.88948508 -13.02477144 55.2828768 -13.02728271 53.67626953 C-13.03023428 50.30692673 -13.02593534 46.93768988 -13.01660156 43.56835938 C-13.00520695 39.24369881 -13.01176626 34.91928646 -13.02374649 30.59463501 C-13.03096425 27.27642945 -13.02867756 23.958283 -13.02349091 20.64007568 C-13.02215417 19.04522675 -13.02380295 17.4503725 -13.02845001 15.85552979 C-13.03351394 13.62880177 -13.02580726 11.40247899 -13.01464844 9.17578125 C-13.01305725 7.90718262 -13.01146606 6.63858398 -13.00982666 5.33154297 C-12.39732497 -1.8082749 -5.58128102 0.04013223 0 0 Z M-0.75585938 12.37109375 C-0.75585938 21.61109375 -0.75585938 30.85109375 -0.75585938 40.37109375 C12.83303069 41.30744723 12.83303069 41.30744723 23.68164062 35.37109375 C26.55419376 31.65458296 27.13052562 28.45175792 26.82617188 23.80859375 C25.81541628 19.57563071 23.65749436 16.99028913 20.24414062 14.37109375 C13.41586318 11.09921081 7.12248681 12.37109375 -0.75585938 12.37109375 Z " fill="#000000" transform="translate(22.755859375,433.62890625)"/>
<path d="M0 0 C1.28753174 0.00607269 1.28753174 0.00607269 2.60107422 0.01226807 C3.92147705 0.00939789 3.92147705 0.00939789 5.26855469 0.00646973 C7.13135056 0.00510755 8.99415591 0.00880625 10.85693359 0.01715088 C13.71457158 0.02785 16.57158088 0.01725675 19.42919922 0.00445557 C21.23649228 0.00577716 23.04378495 0.00833954 24.85107422 0.01226807 C25.70942871 0.0082196 26.5677832 0.00417114 27.45214844 0 C33.49615677 0.04797562 33.49615677 0.04797562 35.72607422 2.27789307 C35.99169922 4.15289307 35.99169922 4.15289307 35.97607422 6.27789307 C35.98380859 7.32976807 35.98380859 7.32976807 35.99169922 8.40289307 C35.72607422 10.27789307 35.72607422 10.27789307 33.72607422 12.27789307 C30.74511719 12.50494385 30.74511719 12.50494385 26.96826172 12.47320557 C26.30521027 12.47037567 25.64215881 12.46754578 24.95901489 12.46463013 C22.83951839 12.45342742 20.72044318 12.42832357 18.60107422 12.40289307 C17.1648824 12.39286334 15.72868397 12.38373748 14.29248047 12.37554932 C10.77005184 12.35518846 7.24853505 12.31604246 3.72607422 12.27789307 C3.72607422 18.87789307 3.72607422 25.47789307 3.72607422 32.27789307 C5.29099609 32.25468994 6.85591797 32.23148682 8.46826172 32.20758057 C10.5125278 32.18882583 12.55679901 32.17062532 14.60107422 32.15289307 C15.63361328 32.13613525 16.66615234 32.11937744 17.72998047 32.10211182 C18.71611328 32.0956665 19.70224609 32.08922119 20.71826172 32.08258057 C22.0850708 32.06687012 22.0850708 32.06687012 23.47949219 32.05084229 C25.72607422 32.27789307 25.72607422 32.27789307 27.72607422 34.27789307 C27.99169922 36.15289307 27.99169922 36.15289307 27.97607422 38.27789307 C27.98380859 39.32976807 27.98380859 39.32976807 27.99169922 40.40289307 C27.72607422 42.27789307 27.72607422 42.27789307 25.72607422 44.27789307 C23.47949219 44.50494385 23.47949219 44.50494385 20.71826172 44.47320557 C19.73212891 44.46676025 18.74599609 44.46031494 17.72998047 44.45367432 C16.69744141 44.4369165 15.66490234 44.42015869 14.60107422 44.40289307 C13.56080078 44.39386963 12.52052734 44.38484619 11.44873047 44.37554932 C8.87441424 44.35193174 6.30021584 44.31605991 3.72607422 44.27789307 C3.72607422 50.87789307 3.72607422 57.47789307 3.72607422 64.27789307 C6.93970703 64.24308838 6.93970703 64.24308838 10.21826172 64.20758057 C12.29003304 64.19198934 14.36179785 64.17984162 16.43359375 64.16802979 C17.87502969 64.15796344 19.31644517 64.14430926 20.7578125 64.12701416 C22.82801355 64.10279295 24.89794498 64.09141665 26.96826172 64.08258057 C28.83780518 64.06687012 28.83780518 64.06687012 30.74511719 64.05084229 C33.72607422 64.27789307 33.72607422 64.27789307 35.72607422 66.27789307 C35.99169922 68.15289307 35.99169922 68.15289307 35.97607422 70.27789307 C35.98380859 71.32976807 35.98380859 71.32976807 35.99169922 72.40289307 C35.72607422 74.27789307 35.72607422 74.27789307 33.72607422 76.27789307 C30.73645318 76.47795609 27.84145072 76.55762229 24.85107422 76.54351807 C23.97080566 76.54543152 23.09053711 76.54734497 22.18359375 76.54931641 C20.32079788 76.55067858 18.45799252 76.54697988 16.59521484 76.53863525 C13.73757686 76.52793613 10.88056756 76.53852938 8.02294922 76.55133057 C6.21565616 76.55000898 4.40836349 76.5474466 2.60107422 76.54351807 C1.74271973 76.54756653 0.88436523 76.55161499 0 76.55578613 C-6.04400833 76.50781051 -6.04400833 76.50781051 -8.27392578 74.27789307 C-8.52789307 71.31744385 -8.52789307 71.31744385 -8.53271484 67.47320557 C-8.53621948 66.77386902 -8.53972412 66.07453247 -8.54333496 65.35400391 C-8.55215454 63.03686669 -8.54630248 60.72003352 -8.53955078 58.40289307 C-8.54089737 56.7962844 -8.54283785 55.18967612 -8.54534912 53.58306885 C-8.54830068 50.21372605 -8.54400175 46.84448919 -8.53466797 43.47515869 C-8.52327336 39.15049812 -8.52983267 34.82608578 -8.5418129 30.50143433 C-8.54903066 27.18322877 -8.54674397 23.86508231 -8.54155731 20.546875 C-8.54022058 18.95202607 -8.54186936 17.35717182 -8.54651642 15.7623291 C-8.55158034 13.53560108 -8.54387366 11.30927831 -8.53271484 9.08258057 C-8.53112366 7.81398193 -8.52953247 6.5453833 -8.52789307 5.23834229 C-8.03922616 -0.45795661 -4.99195617 0.03962473 0 0 Z " fill="#000000" transform="translate(362.27392578125,433.72210693359375)"/>
<path d="M0 0 C1.25748047 -0.01224609 2.51496094 -0.02449219 3.81054688 -0.03710938 C5.60782227 -0.04000977 5.60782227 -0.04000977 7.44140625 -0.04296875 C8.54299072 -0.04707764 9.6445752 -0.05118652 10.77954102 -0.05541992 C13.4375 0.1875 13.4375 0.1875 15.4375 2.1875 C15.703125 4.0625 15.703125 4.0625 15.6875 6.1875 C15.69523437 7.239375 15.69523437 7.239375 15.703125 8.3125 C15.4375 10.1875 15.4375 10.1875 13.4375 12.1875 C11.4855957 12.45874023 11.4855957 12.45874023 9.11328125 12.49609375 C8.24896484 12.52123047 7.38464844 12.54636719 6.49414062 12.57226562 C4.68430918 12.6070453 2.87440764 12.63837268 1.06445312 12.66601562 C-4.53046004 12.83580944 -8.61669517 13.49279777 -13.5625 16.1875 C-15.12721233 19.31692465 -15.25951958 22.79832223 -14.5625 26.1875 C-11.54380566 30.29381215 -8.65341111 30.85469165 -3.75 31.625 C3.31498146 33.01014678 7.37214599 34.50121531 11.9609375 40.01953125 C16.3693217 46.58339612 16.40894213 53.51773309 15.4375 61.1875 C13.70336568 67.27312664 8.40970383 71.5732081 3.4375 75.1875 C-1.87543126 76.95847709 -7.56506252 76.37214142 -13.125 76.375 C-15.0112207 76.39336914 -15.0112207 76.39336914 -16.93554688 76.41210938 C-18.13373047 76.41404297 -19.33191406 76.41597656 -20.56640625 76.41796875 C-21.66799072 76.42207764 -22.7695752 76.42618652 -23.90454102 76.43041992 C-26.5625 76.1875 -26.5625 76.1875 -28.5625 74.1875 C-28.828125 72.3125 -28.828125 72.3125 -28.8125 70.1875 C-28.81765625 69.48625 -28.8228125 68.785 -28.828125 68.0625 C-28.5625 66.1875 -28.5625 66.1875 -26.5625 64.1875 C-24.6105957 63.91625977 -24.6105957 63.91625977 -22.23828125 63.87890625 C-21.37396484 63.85376953 -20.50964844 63.82863281 -19.61914062 63.80273438 C-17.80930918 63.7679547 -15.99940764 63.73662732 -14.18945312 63.70898438 C-8.59453996 63.53919056 -4.50830483 62.88220223 0.4375 60.1875 C2.00221233 57.05807535 2.13451958 53.57667777 1.4375 50.1875 C-1.58119434 46.08118785 -4.47158889 45.52030835 -9.375 44.75 C-16.43998146 43.36485322 -20.49714599 41.87378469 -25.0859375 36.35546875 C-29.4853647 29.8049404 -29.65080672 22.84103916 -28.5625 15.1875 C-26.37053317 8.45709964 -22.54875568 4.73491077 -16.5625 1.1875 C-11.24956874 -0.58347709 -5.55993748 0.00285858 0 0 Z " fill="#000000" transform="translate(486.5625,433.8125)"/>
<path d="M0 0 C1.25748047 -0.01224609 2.51496094 -0.02449219 3.81054688 -0.03710938 C5.60782227 -0.04000977 5.60782227 -0.04000977 7.44140625 -0.04296875 C8.54299072 -0.04707764 9.6445752 -0.05118652 10.77954102 -0.05541992 C13.4375 0.1875 13.4375 0.1875 15.4375 2.1875 C15.703125 4.0625 15.703125 4.0625 15.6875 6.1875 C15.69523437 7.239375 15.69523437 7.239375 15.703125 8.3125 C15.4375 10.1875 15.4375 10.1875 13.4375 12.1875 C11.4855957 12.45874023 11.4855957 12.45874023 9.11328125 12.49609375 C8.24896484 12.52123047 7.38464844 12.54636719 6.49414062 12.57226562 C4.68430918 12.6070453 2.87440764 12.63837268 1.06445312 12.66601562 C-4.53046004 12.83580944 -8.61669517 13.49279777 -13.5625 16.1875 C-15.12721233 19.31692465 -15.25951958 22.79832223 -14.5625 26.1875 C-11.54380566 30.29381215 -8.65341111 30.85469165 -3.75 31.625 C3.31498146 33.01014678 7.37214599 34.50121531 11.9609375 40.01953125 C16.3693217 46.58339612 16.40894213 53.51773309 15.4375 61.1875 C13.70336568 67.27312664 8.40970383 71.5732081 3.4375 75.1875 C-1.87543126 76.95847709 -7.56506252 76.37214142 -13.125 76.375 C-15.0112207 76.39336914 -15.0112207 76.39336914 -16.93554688 76.41210938 C-18.13373047 76.41404297 -19.33191406 76.41597656 -20.56640625 76.41796875 C-21.66799072 76.42207764 -22.7695752 76.42618652 -23.90454102 76.43041992 C-26.5625 76.1875 -26.5625 76.1875 -28.5625 74.1875 C-28.828125 72.3125 -28.828125 72.3125 -28.8125 70.1875 C-28.81765625 69.48625 -28.8228125 68.785 -28.828125 68.0625 C-28.5625 66.1875 -28.5625 66.1875 -26.5625 64.1875 C-24.6105957 63.91625977 -24.6105957 63.91625977 -22.23828125 63.87890625 C-21.37396484 63.85376953 -20.50964844 63.82863281 -19.61914062 63.80273438 C-17.80930918 63.7679547 -15.99940764 63.73662732 -14.18945312 63.70898438 C-8.59453996 63.53919056 -4.50830483 62.88220223 0.4375 60.1875 C2.00221233 57.05807535 2.13451958 53.57667777 1.4375 50.1875 C-1.58119434 46.08118785 -4.47158889 45.52030835 -9.375 44.75 C-16.43998146 43.36485322 -20.49714599 41.87378469 -25.0859375 36.35546875 C-29.4853647 29.8049404 -29.65080672 22.84103916 -28.5625 15.1875 C-26.37053317 8.45709964 -22.54875568 4.73491077 -16.5625 1.1875 C-11.24956874 -0.58347709 -5.55993748 0.00285858 0 0 Z " fill="#000000" transform="translate(434.5625,433.8125)"/>
<path d="M0 0 C0.70125 0.00515625 1.4025 0.0103125 2.125 0.015625 C2.82625 0.01046875 3.5275 0.0053125 4.25 0 C6.125 0.265625 6.125 0.265625 8.125 2.265625 C8.37896729 5.22607422 8.37896729 5.22607422 8.38378906 9.0703125 C8.3872937 9.76964905 8.39079834 10.4689856 8.39440918 11.18951416 C8.40322876 13.50665138 8.3973767 15.82348455 8.390625 18.140625 C8.39197159 19.74723367 8.39391207 21.35384195 8.39642334 22.96044922 C8.3993749 26.32979202 8.39507597 29.69902887 8.38574219 33.06835938 C8.37434758 37.39301994 8.38090689 41.71743229 8.39288712 46.04208374 C8.40010488 49.3602893 8.39781819 52.67843575 8.39263153 55.99664307 C8.3912948 57.591492 8.39294358 59.18634625 8.39759064 60.78118896 C8.40265456 63.00791698 8.39494788 65.23423976 8.38378906 67.4609375 C8.38140228 69.36383545 8.38140228 69.36383545 8.37896729 71.30517578 C8.125 74.265625 8.125 74.265625 6.125 76.265625 C4.25 76.53125 4.25 76.53125 2.125 76.515625 C1.42375 76.52078125 0.7225 76.5259375 0 76.53125 C-1.875 76.265625 -1.875 76.265625 -3.875 74.265625 C-4.12896729 71.30517578 -4.12896729 71.30517578 -4.13378906 67.4609375 C-4.1372937 66.76160095 -4.14079834 66.0622644 -4.14440918 65.34173584 C-4.15322876 63.02459862 -4.1473767 60.70776545 -4.140625 58.390625 C-4.14197159 56.78401633 -4.14391207 55.17740805 -4.14642334 53.57080078 C-4.1493749 50.20145798 -4.14507597 46.83222113 -4.13574219 43.46289062 C-4.12434758 39.13823006 -4.13090689 34.81381771 -4.14288712 30.48916626 C-4.15010488 27.1709607 -4.14781819 23.85281425 -4.14263153 20.53460693 C-4.1412948 18.939758 -4.14294358 17.34490375 -4.14759064 15.75006104 C-4.15265456 13.52333302 -4.14494788 11.29701024 -4.13378906 9.0703125 C-4.13219788 7.80171387 -4.13060669 6.53311523 -4.12896729 5.22607422 C-3.84860774 1.95797541 -3.44302608 0.48776203 0 0 Z " fill="#000000" transform="translate(381.875,337.734375)"/>
</svg>
